# Blender 3.3.1
# www.blender.org
mtllib pyramid.mtl
o Cone
v 0.000000 -0.700000 -1.000000
v 1.000000 -0.700000 0.000000
v 0.000000 -0.700000 1.000000
v -1.000000 -0.700000 0.000000
v 0.000000 0.700000 0.000000
vn 0.6312 0.4508 -0.6312
vn 0.6312 0.4508 0.6312
vn -0.0000 -1.0000 -0.0000
vn -0.6312 0.4508 0.6312
vn -0.6312 0.4508 -0.6312
vt 0.750000 0.490000
vt 0.250000 0.490000
vt 0.490000 0.250000
vt 0.990000 0.250000
vt 0.750000 0.010000
vt 0.250000 0.010000
vt 0.510000 0.250000
vt 0.010000 0.250000
vt 0.250000 0.250000
s 0
usemtl Material.001
f 1/2/1 5/9/1 2/3/1
f 2/3/2 5/9/2 3/6/2
f 1/1/3 2/4/3 3/5/3 4/7/3
f 3/6/4 5/9/4 4/8/4
f 4/8/5 5/9/5 1/2/5
