# Blender 3.4.0
# www.blender.org
mtllib alien.mtl
o Cube
v 0.689913 0.033559 0.000000
v 1.000000 -1.000000 -1.000000
v 0.478074 0.689913 0.000000
v 1.000000 -1.000000 1.000000
v 0.555485 -0.421058 0.000000
v -1.000000 -1.000000 -1.000000
v -0.555485 -0.421058 0.000000
v -1.000000 -1.000000 1.000000
v 0.302413 1.000000 -0.302413
v 1.000000 0.302413 -1.000000
v 0.302413 1.000000 0.302413
v 1.000000 0.302413 1.000000
v -0.302413 1.000000 -0.302413
v -1.000000 0.302413 -1.000000
v -0.302413 1.000000 0.302413
v -1.000000 0.302413 1.000000
v -0.478074 0.689913 0.000000
v -0.689913 0.033559 0.000000
v 0.000000 -0.421058 -0.555485
v 0.000000 -0.421058 0.555485
v 0.000000 0.689913 0.478074
v 0.000000 0.033559 0.689913
v 0.000000 0.689913 -0.478074
v 0.000000 0.033559 -0.689913
v 0.000000 0.287949 0.000000
v 0.000000 -0.280674 0.000000
vn 0.3617 -0.0711 0.9296
vn -0.9296 -0.0711 0.3617
vn -0.8574 0.4315 -0.2803
vn -0.3206 -0.8913 -0.3206
vn 0.6062 0.5149 -0.6062
vn 0.9296 -0.0711 -0.3617
vn 0.2803 0.4315 0.8574
vn 0.8574 0.4315 -0.2803
vn -0.8574 0.4315 0.2803
vn -0.2803 0.4315 -0.8574
vn -0.3617 -0.0711 -0.9296
vn 0.8574 0.4315 0.2803
vn 0.9296 -0.0711 0.3617
vn 0.6062 0.5149 0.6062
vn -0.3206 -0.8913 0.3206
vn -0.9296 -0.0711 -0.3617
vn 0.3206 -0.8913 0.3206
vn -0.6062 0.5149 0.6062
vn 0.3617 -0.0711 -0.9296
vn 0.2803 0.4315 -0.8574
vn -0.2803 0.4315 0.8574
vn -0.6062 0.5149 -0.6062
vn 0.3206 -0.8913 -0.3206
vn -0.3617 -0.0711 0.9296
vt 0.537802 0.625000
vt 0.375000 0.500000
vt 0.712198 0.625000
vt 0.375000 0.750000
vt 0.375000 0.625000
vt 0.125000 0.500000
vt 0.375000 0.250000
vt 0.375000 0.125000
vt 0.125000 0.625000
vt 0.375000 1.000000
vt 0.375000 0.000000
vt 0.125000 0.750000
vt 0.712198 0.587198
vt 0.625000 0.500000
vt 0.537802 0.500000
vt 0.712198 0.662802
vt 0.625000 0.750000
vt 0.537802 0.750000
vt 0.787802 0.587198
vt 0.537802 0.250000
vt 0.875000 0.500000
vt 0.787802 0.662802
vt 0.537802 1.000000
vt 0.875000 0.750000
vt 0.537802 0.000000
vt 0.787802 0.625000
vt 0.875000 0.625000
vt 0.537802 0.125000
vt 0.250000 0.500000
vt 0.375000 0.375000
vt 0.250000 0.750000
vt 0.375000 0.875000
vt 0.750000 0.662802
vt 0.750000 0.750000
vt 0.537802 0.875000
vt 0.750000 0.587198
vt 0.537802 0.375000
vt 0.750000 0.500000
vt 0.750000 0.625000
vt 0.250000 0.625000
s 0
usemtl Material
f 20/32/1 22/35/1 16/23/1 8/10/1
f 7/8/2 18/28/2 14/20/2 6/7/2
f 15/22/3 17/26/3 18/27/3 16/24/3
f 26/40/4 5/5/4 4/4/4 20/31/4
f 25/39/5 17/26/5 15/22/5 21/33/5
f 5/5/6 1/1/6 12/18/6 4/4/6
f 21/33/7 15/22/7 16/24/7 22/34/7
f 3/3/8 11/16/8 12/18/8 1/1/8
f 17/26/9 13/19/9 14/21/9 18/27/9
f 23/36/10 9/13/10 10/14/10 24/38/10
f 19/30/11 24/37/11 10/15/11 2/2/11
f 9/13/12 3/3/12 1/1/12 10/15/12
f 2/2/13 10/15/13 1/1/13 5/5/13
f 23/36/14 13/19/14 17/26/14 25/39/14
f 19/29/15 2/2/15 5/5/15 26/40/15
f 8/11/16 16/25/16 18/28/16 7/8/16
f 6/6/17 19/29/17 26/40/17 7/9/17
f 9/13/18 23/36/18 25/39/18 3/3/18
f 6/7/19 14/20/19 24/37/19 19/30/19
f 13/19/20 23/36/20 24/38/20 14/21/20
f 11/16/21 21/33/21 22/34/21 12/17/21
f 3/3/22 25/39/22 21/33/22 11/16/22
f 7/9/23 26/40/23 20/31/23 8/12/23
f 4/4/24 12/18/24 22/35/24 20/32/24
